<svg width="36" height="36" viewBox="0 0 36 36" fill="none" xmlns="http://www.w3.org/2000/svg">
<path d="M15.376 5.43336C15.5285 5.61871 15.622 5.84555 15.6443 6.08456C15.6665 6.32357 15.6166 6.56377 15.501 6.77413C14.5976 8.43286 14.1258 10.2921 14.129 12.1809C14.129 18.4644 19.2514 23.5525 25.5646 23.5525C26.3881 23.5525 27.1897 23.4665 27.9601 23.3024C28.1963 23.2513 28.4423 23.2709 28.6674 23.3587C28.8925 23.4465 29.0867 23.5987 29.2259 23.7962C29.3728 24.0016 29.4476 24.2498 29.4389 24.5022C29.4301 24.7546 29.3382 24.997 29.1774 25.1917C27.9518 26.6972 26.4057 27.9103 24.6517 28.7424C22.8977 29.5745 20.9802 30.0047 19.0389 30.0016C11.835 30.0016 6 24.1978 6 17.0471C6 11.6653 9.30347 7.04916 14.0071 5.0927C14.2414 4.99368 14.5015 4.97335 14.7483 5.03478C14.9952 5.09621 15.2154 5.23607 15.376 5.43336V5.43336Z" fill="#FFDFB0"/>
<path d="M22.8668 9.91815C22.8892 9.85048 22.9324 9.79159 22.9902 9.74985C23.048 9.70811 23.1175 9.68565 23.1887 9.68565C23.26 9.68565 23.3295 9.70811 23.3873 9.74985C23.4451 9.79159 23.4882 9.85048 23.5106 9.91815L24.1154 11.734C24.3857 12.5434 25.0202 13.1779 25.8296 13.4482L27.6455 14.053C27.7131 14.0754 27.772 14.1185 27.8138 14.1763C27.8555 14.2341 27.878 14.3036 27.878 14.3749C27.878 14.4462 27.8555 14.5156 27.8138 14.5734C27.772 14.6312 27.7131 14.6744 27.6455 14.6968L25.8296 15.3015C25.4304 15.4345 25.0677 15.6587 24.7701 15.9562C24.4726 16.2538 24.2484 16.6166 24.1154 17.0158L23.5106 18.8316C23.4882 18.8993 23.4451 18.9581 23.3873 18.9999C23.3295 19.0416 23.26 19.0641 23.1887 19.0641C23.1175 19.0641 23.048 19.0416 22.9902 18.9999C22.9324 18.9581 22.8892 18.8993 22.8668 18.8316L22.2621 17.0158C22.1291 16.6166 21.9049 16.2538 21.6074 15.9562C21.3098 15.6587 20.9471 15.4345 20.5478 15.3015L18.732 14.6968C18.6643 14.6744 18.6055 14.6312 18.5637 14.5734C18.522 14.5156 18.4995 14.4462 18.4995 14.3749C18.4995 14.3036 18.522 14.2341 18.5637 14.1763C18.6055 14.1185 18.6643 14.0754 18.732 14.053L20.5478 13.4482C20.9471 13.3152 21.3098 13.091 21.6074 12.7935C21.9049 12.4959 22.1291 12.1332 22.2621 11.734L22.8668 9.91815V9.91815ZM27.6626 5.15358C27.6781 5.10909 27.707 5.07051 27.7453 5.0432C27.7837 5.01589 27.8296 5.00122 27.8767 5.00122C27.9238 5.00122 27.9697 5.01589 28.0081 5.0432C28.0465 5.07051 28.0754 5.10909 28.0908 5.15358L28.494 6.36309C28.6737 6.90377 29.0972 7.32725 29.6379 7.50696L30.8474 7.91013C30.8919 7.92555 30.9304 7.95446 30.9577 7.99283C30.985 8.03119 30.9997 8.07712 30.9997 8.12421C30.9997 8.1713 30.985 8.21723 30.9577 8.25559C30.9304 8.29396 30.8919 8.32287 30.8474 8.3383L29.6379 8.74146C29.3714 8.8301 29.1293 8.97964 28.9307 9.1782C28.7322 9.37676 28.5826 9.61888 28.494 9.88533L28.0908 11.0948C28.0754 11.1393 28.0465 11.1779 28.0081 11.2052C27.9697 11.2325 27.9238 11.2472 27.8767 11.2472C27.8296 11.2472 27.7837 11.2325 27.7453 11.2052C27.707 11.1779 27.6781 11.1393 27.6626 11.0948L27.2595 9.88533C27.1708 9.61888 27.0213 9.37676 26.8227 9.1782C26.6242 8.97964 26.3821 8.8301 26.1156 8.74146L24.9061 8.3383C24.8616 8.32287 24.823 8.29396 24.7957 8.25559C24.7684 8.21723 24.7537 8.1713 24.7537 8.12421C24.7537 8.07712 24.7684 8.03119 24.7957 7.99283C24.823 7.95446 24.8616 7.92555 24.9061 7.91013L26.1156 7.50696C26.6563 7.32725 27.0798 6.90377 27.2595 6.36309L27.6626 5.15515V5.15358Z" fill="#FFDFB0"/>
</svg>
